#!OML:ASF H:\Martial Arts Walks\Project 1\Capture day 1\Session 1\male.ASF
:FULLY-SPECIFIED
:DEGREES
1029
root -2.40175 13.9119 25.0437 5.8437 13.4045 0.863632
lowerback 10.3416 -4.409 -11.0499
upperback -1.91196 -7.16125 2.58459
thorax -6.17503 -3.06374 10.0295
lowerneck 8.98953 -18.4109 -18.296
upperneck 6.71057 -27.2692 16.5097
head 5.37069 -13.8952 6.2075
rclavicle -1.2439e-013 -1.89839e-014
rhumerus -36.1435 14.9009 -77.069
rradius 41.6633
rwrist 1.09329
rhand -12.5761 -38.1846
rfingers 7.12502
rthumb 13.5018 -67.7269
lclavicle -1.2439e-013 -1.89839e-014
lhumerus -27.1326 -3.21656 83.6959
lradius 36.929
lwrist -9.89323
lhand -27.9173 20.8653
lfingers 7.12502
lthumb -1.30604 50.841
rfemur -61.9472 -12.1873 14.634
rtibia 71.6712
rfoot -12.7768 14.411
rtoes 2.01477
lfemur 14.5 1.73431 -13.41
ltibia 33.3462
lfoot -32.6472 37.4355
ltoes -21.1307
1030
root -2.39975 13.9128 25.0438 5.88663 13.3709 0.785291
lowerback 10.3157 -4.41512 -11.043
upperback -1.92776 -7.16356 2.63288
thorax -6.17145 -3.06421 10.0769
lowerneck 8.89165 -18.3883 -18.3277
upperneck 6.7639 -27.2334 16.5034
head 5.3996 -13.8727 6.20187
rclavicle -4.1049e-014 -6.65929e-015
rhumerus -36.0816 15.1478 -77.0701
rradius 41.7878
rwrist 1.00958
rhand -12.57 -38.3899
rfingers 7.12502
rthumb 13.5077 -67.9318
lclavicle -4.1049e-014 -6.65929e-015
lhumerus -27.0712 -3.20127 83.7929
lradius 37.0437
lwrist -9.84286
lhand -27.832 20.8969
lfingers 7.12502
lthumb -1.22367 50.8732
rfemur -62.016 -12.0876 14.7117
rtibia 71.659
rfoot -12.7201 14.3322
rtoes 1.922
lfemur 14.4251 1.75132 -13.3525
ltibia 33.3707
lfoot -32.6371 37.4546
ltoes -21.1228
1031
root -2.39441 13.9156 25.0282 5.94671 13.3139 0.55968
lowerback 10.2292 -4.40864 -10.8243
upperback -1.87245 -7.10958 2.69635
thorax -6.09104 -3.0541 10.0028
lowerneck 9.80166 -18.1872 -18.3305
upperneck 5.49399 -27.0142 17.3406
head 4.95026 -13.8243 6.62169
rclavicle 6.29526e-014 -7.55382e-015
rhumerus -35.8971 14.9973 -76.9584
rradius 42.0276
rwrist 1.03366
rhand -12.5108 -38.4685
rfingers 7.12502
rthumb 13.5647 -68.0066
lclavicle 6.29526e-014 -7.55382e-015
lhumerus -26.8091 -3.51095 83.904
lradius 37.1166
lwrist -9.58085
lhand -27.8452 20.6679
lfingers 7.12502
lthumb -1.23641 50.6441
rfemur -62.1475 -11.9442 14.9493
rtibia 71.6068
rfoot -12.6401 14.252
rtoes 1.83557
lfemur 14.2598 1.83337 -13.144
ltibia 33.3997
lfoot -32.6485 37.4066
ltoes -21.1055
1032
root -2.39025 13.9115 25.0451 5.91946 13.3128 0.818263
lowerback 10.2396 -4.35532 -11.0129
upperback -1.93878 -7.07474 2.58331
thorax -6.1718 -3.02173 9.98881
lowerneck 8.83856 -18.396 -18.3838
upperneck 6.95869 -27.262 16.4671
head 5.4758 -13.8832 6.17943
rclavicle 1.00436e-013 -9.24349e-015
rhumerus -36.0742 15.1159 -76.9817
rradius 42.0174
rwrist 0.872298
rhand -12.848 -38.2881
rfingers 7.12502
rthumb 13.2397 -67.8477
lclavicle 1.00436e-013 -9.24349e-015
lhumerus -27.0003 -3.6024 84.049
lradius 37.3145
lwrist -9.72879
lhand -27.814 20.7174
lfingers 7.12502
lthumb -1.20623 50.6937
rfemur -62.0647 -12.0391 14.6355
rtibia 71.6773
rfoot -12.6838 14.3247
rtoes 1.90477
lfemur 14.4204 1.84852 -13.4152
ltibia 33.3778
lfoot -32.6926 37.435
ltoes -21.1309
1033
root -2.38989 13.9118 25.0462 5.90784 13.378 0.798894
lowerback 10.2314 -4.33581 -10.9821
upperback -1.96948 -7.0463 2.57025
thorax -6.21263 -3.00442 9.95594
lowerneck 8.96224 -18.3994 -18.4855
upperneck 7.01428 -27.3039 16.4975
head 5.49957 -13.9113 6.20258
rclavicle 4.00054e-015 -2.38542e-015
rhumerus -36.1651 15.0758 -76.929
rradius 42.1212
rwrist 0.880828
rhand -12.7273 -38.2787
rfingers 7.12502
rthumb 13.356 -67.8307
lclavicle 4.00054e-015 -2.38542e-015
lhumerus -27.0714 -3.92257 84.2175
lradius 37.4753
lwrist -9.58012
lhand -27.4557 21.0162
lfingers 7.12502
lthumb -0.860252 50.9942
rfemur -62.0444 -12.0507 14.6454
rtibia 71.6902
rfoot -12.6955 14.271
rtoes 1.83081
lfemur 14.4234 1.82073 -13.3591
ltibia 33.3642
lfoot -32.6951 37.3806
ltoes -21.1028
1034
root -2.38457 13.9119 25.05 5.91355 13.3841 0.870774
lowerback 10.2454 -4.37962 -11.0947
upperback -1.90951 -7.11759 2.57081
thorax -6.12526 -3.04499 10.0235
lowerneck 8.72586 -18.3772 -18.3248
upperneck 6.93833 -27.215 16.4823
head 5.47304 -13.8534 6.17413
rclavicle -1.7257e-014 2.93207e-014
rhumerus -35.9454 15.3114 -76.9367
rradius 42.186
rwrist 0.842751
rhand -12.2093 -38.6566
rfingers 7.12502
rthumb 13.8553 -68.1751
lclavicle -1.7257e-014 2.93207e-014
lhumerus -26.9811 -3.92687 84.2665
lradius 37.6768
lwrist -9.39148
lhand -27.3404 21.162
lfingers 7.12502
lthumb -0.748834 51.1404
rfemur -62.0206 -12.0927 14.5498
rtibia 71.7287
rfoot -12.7513 14.2652
rtoes 1.60439
lfemur 14.4843 1.81427 -13.4463
ltibia 33.2912
lfoot -32.7521 37.3019
ltoes -21.0825
1035
root -2.38039 13.9126 25.049 5.93596 13.3775 0.876051
lowerback 10.2442 -4.3634 -11.0696
upperback -1.92514 -7.09434 2.55547
thorax -6.15208 -3.03178 9.9915
lowerneck 9.47312 -18.1814 -18.379
upperneck 6.00637 -27.0087 17.1116
head 5.13105 -13.8002 6.50784
rclavicle -4.80438e-014 4.67144e-015
rhumerus -35.9345 15.336 -76.9127
rradius 42.2438
rwrist 0.857268
rhand -12.6646 -38.405
rfingers 7.12502
rthumb 13.4164 -67.953
lclavicle -4.80438e-014 4.67144e-015
lhumerus -27.0028 -4.08826 84.3906
lradius 37.8545
lwrist -9.30551
lhand -27.6069 20.9503
lfingers 7.12502
lthumb -1.00628 50.9277
rfemur -62.0488 -12.098 14.5401
rtibia 71.7323
rfoot -12.7626 14.2487
rtoes 1.47989
lfemur 14.484 1.82674 -13.4651
ltibia 33.2635
lfoot -32.819 37.2458
ltoes -21.0263
1036
root -2.37622 13.9123 25.0465 5.97839 13.3504 0.850282
lowerback 10.2563 -4.34257 -11.0014
upperback -1.96975 -7.06224 2.54466
thorax -6.22437 -3.01087 9.94329
lowerneck 9.9258 -18.0511 -18.3182
upperneck 5.56929 -26.8508 17.3048
head 4.91779 -13.7508 6.64855
rclavicle 1.19234e-013 -5.26779e-015
rhumerus -35.9531 15.3386 -76.8893
rradius 42.2928
rwrist 0.854246
rhand -12.7414 -38.2965
rfingers 7.12502
rthumb 13.3424 -67.8494
lclavicle 1.19234e-013 -5.26779e-015
lhumerus -27.063 -4.25894 84.506
lradius 38.0386
lwrist -9.22237
lhand -26.9772 21.2927
lfingers 7.12502
lthumb -0.398048 51.2721
rfemur -62.1115 -12.0769 14.5594
rtibia 71.7272
rfoot -12.7323 14.2649
rtoes 1.57749
lfemur 14.433 1.88122 -13.456
ltibia 33.2495
lfoot -32.656 37.3598
ltoes -21.1942
